# xmcd CD database file
#
# Track frame offsets:
#	150
#	18291
#	33872
#	50010
#	65749
#	76168
#	89132
#	103707
#	127131
#	142335
#	165903
#	187856
#	202269
#	212612
#	227628
#
# Disc length: 3255 seconds
#
# Revision: 4
# Processed by: cddbd v1.5.2PL0 Copyright (c) Steve Scherf et al.
# Submitted via: CDex 1.72
#
DISCID=d60cb50f
DTITLE=Earle, Steve (USA-09-Townes-cty) - Townes - Disc 01
DYEAR=2009
DGENRE=Country
TTITLE0=Pancho And Lefty
TTITLE1=White Freightliner Blues
TTITLE2=Colorado Girl
TTITLE3=Where I Lead Me
TTITLE4=Lungs
TTITLE5=No Place To Fall
TTITLE6=Loretta
TTITLE7=Brand New Companion
TTITLE8=Rake
TTITLE9=Delta Momma Blues
TTITLE10=Marie
TTITLE11=Don't Take It Too Bad
TTITLE12=Mr. Mudd And Mr. Gold
TTITLE13=(Quicksiver Daydreams Of) Maria
TTITLE14=To Live Is To Fly
EXTD=YEAR: 2009
EXTT0=
EXTT1=
EXTT2=
EXTT3=
EXTT4=
EXTT5=
EXTT6=
EXTT7=
EXTT8=
EXTT9=
EXTT10=
EXTT11=
EXTT12=
EXTT13=
EXTT14=
PLAYORDER=
